<svg width="887" height="455" viewBox="0 0 887 455" fill="none" xmlns="http://www.w3.org/2000/svg">
<circle cx="227.5" cy="227.5" r="227.5" fill="#4285F4"/>
<path d="M237.453 95.7031C240.359 89.2344 242.422 86 243.641 86H244.344C245.75 86 248.609 87.5 252.922 90.5C257.234 93.5 259.391 96.3125 259.391 98.9375C259.391 102.594 247.391 130.906 223.391 183.875C199.391 236.844 185.609 266.562 182.047 273.031C178.578 279.406 176.188 283.672 174.875 285.828C173.562 287.984 171.781 290.375 169.531 293C165.5 297.969 160.484 300.453 154.484 300.453C152.047 300.453 149.891 300.734 148.016 301.297C146.141 301.953 145.016 302.281 144.641 302.281C141.641 302.281 140.141 301.578 140.141 300.172C140.141 299.891 140.516 298.719 141.266 296.656C142.109 294.688 152.844 271.953 173.469 228.453C151.438 227.609 132.078 226.953 115.391 226.484C99.3594 246.641 84.8281 267.734 71.7969 289.766C70.2031 292.859 68.7031 295.016 67.2969 296.234C65.8906 297.547 63.9688 298.203 61.5312 298.203C59.0938 298.203 56.4688 296.938 53.6562 294.406C50.8438 291.969 49.4375 289.109 49.4375 285.828C49.4375 276.453 61.5312 256.391 85.7188 225.641C74.375 225.641 67.1562 225.922 64.0625 226.484C61.0625 227.047 59.1406 227.328 58.2969 227.328C55.7656 227.328 54.5 225.219 54.5 221C54.5 216.688 56.9844 212.938 61.9531 209.75C67.0156 206.469 73.7656 204.828 82.2031 204.828C82.8594 204.828 84.0312 204.781 85.7188 204.688C91.5312 204.406 97.4844 204.172 103.578 203.984C124.016 179.984 145.391 157.719 167.703 137.188C190.016 116.656 209.328 102.266 225.641 94.0156C228.266 92.7031 230.328 92.0937 231.828 92.1875C233.422 92.1875 235.297 93.3594 237.453 95.7031ZM227.609 115.531C193.391 141.5 162.125 170.984 133.812 203.984C150.406 204.359 167.188 205.062 184.156 206.094C201.219 170.188 215.703 140 227.609 115.531ZM338.141 248.844C339.922 248.844 341 250.203 341.375 252.922C341.75 255.641 341.938 258.453 341.938 261.359C341.938 264.266 341.656 266.281 341.094 267.406C338.375 272.656 332.422 279.078 323.234 286.672C314.047 294.172 305.328 297.922 297.078 297.922C292.016 297.922 287.328 296.375 283.016 293.281C278.703 290.281 276.547 284.984 276.547 277.391C276.547 269.797 278.562 262.344 282.594 255.031C259.344 284.188 241.109 298.766 227.891 298.766C222.641 298.766 218.375 296.891 215.094 293.141C211.906 289.391 210.312 285.547 210.312 281.609C210.312 277.578 210.875 273.453 212 269.234C213.125 264.922 214.297 261.078 215.516 257.703C216.828 254.328 218.703 250.156 221.141 245.188C223.672 240.219 225.547 236.609 226.766 234.359C227.984 232.109 229.906 228.734 232.531 224.234C235.25 219.641 238.766 213.5 243.078 205.812C247.484 198.125 251.094 192.453 253.906 188.797C256.812 185.047 259.625 183.172 262.344 183.172C265.062 183.078 267.453 184.156 269.516 186.406C271.578 188.656 272.609 190.484 272.609 191.891C272.609 193.297 269.469 199.625 263.188 210.875C244.625 244.438 235.344 263.984 235.344 269.516C235.344 270.922 235.859 271.625 236.891 271.625C241.391 271.625 252.594 261.875 270.5 242.375C288.406 222.875 298.766 210.406 301.578 204.969C304.391 199.438 307.109 194.797 309.734 191.047C312.453 187.297 314.469 185 315.781 184.156C319.812 181.531 325.016 180.125 331.391 179.938C332.422 179.938 333.219 179.984 333.781 180.078C334.344 180.172 335 180.969 335.75 182.469C336.5 183.969 336.875 185.141 336.875 185.984C336.031 188.609 332.281 195.594 325.625 206.938C319.062 218.281 315.406 224.703 314.656 226.203C303.594 249.078 298.062 263.984 298.062 270.922C298.062 274.859 299.562 276.828 302.562 276.828C308 276.078 314.562 271.719 322.25 263.75C325.062 260.844 327.828 257.891 330.547 254.891C333.359 251.891 335.094 250.156 335.75 249.688C336.406 249.125 337.203 248.844 338.141 248.844ZM429.688 111.875L435.453 113.281C436.297 113.281 437.047 113.703 437.703 114.547C438.359 115.391 438.688 116.188 438.688 116.938C438.688 117.687 437.703 119.703 435.734 122.984C433.766 126.266 431.422 130.016 428.703 134.234C426.078 138.359 424.672 140.609 424.484 140.984C431.797 140.422 436.953 140.141 439.953 140.141C443.047 140.141 445.156 140.375 446.281 140.844C447.406 141.219 448.672 142.391 450.078 144.359C451.578 146.234 452.938 147.688 454.156 148.719C455.375 149.656 455.984 151.109 455.984 153.078C455.984 155.047 454.766 156.734 452.328 158.141C449.984 159.453 447.453 160.25 444.734 160.531C422.984 162.688 410.984 163.812 408.734 163.906C401.141 175.531 390.5 193.672 376.812 218.328C363.219 242.891 356 258.266 355.156 264.453C354.781 267.266 354.594 269.562 354.594 271.344C354.594 275 356.516 276.828 360.359 276.828C364.203 276.828 368.469 275.375 373.156 272.469C377.844 269.469 382.156 266.234 386.094 262.766C396.594 253.391 402.219 248.703 402.969 248.703C405.406 248.703 406.625 252.922 406.625 261.359C406.625 265.953 404.516 270.078 400.297 273.734C390.828 281.891 382.859 288.031 376.391 292.156C369.922 296.281 363.453 298.344 356.984 298.344C355.578 298.344 354.266 298.203 353.047 297.922C345.547 296.516 340.016 293.797 336.453 289.766C332.984 285.641 331.25 280.109 331.25 273.172C331.344 266.234 333.406 257.844 337.438 248C341.562 238.062 346.719 227.516 352.906 216.359C363.031 198.172 373.156 181.109 383.281 165.172L377.938 165.875C367.062 167.094 360.734 167.703 358.953 167.703H357.688C354.969 167.703 352.344 167.188 349.812 166.156C347.281 165.031 346.016 163.672 346.016 162.078C346.016 160.484 346.672 158.938 347.984 157.438C349.391 155.938 350.234 154.766 350.516 153.922C351.172 151.859 353.609 149.562 357.828 147.031C362.141 144.5 365.375 143.188 367.531 143.094C369.688 142.906 371.75 142.766 373.719 142.672C375.781 142.578 378.031 142.484 380.469 142.391C383 142.297 384.922 142.203 386.234 142.109L398.891 141.547C406.766 129.734 412.156 122.141 415.062 118.766C418.062 115.391 419.797 113.562 420.266 113.281C420.734 112.906 421.672 112.719 423.078 112.719L429.688 111.875ZM518.562 251.516C519.219 255.828 519.547 259.25 519.547 261.781C519.547 264.219 519.078 266.375 518.141 268.25C517.297 270.031 515.328 272.609 512.234 275.984C509.234 279.266 505.625 282.594 501.406 285.969C491.094 294.125 480.547 298.203 469.766 298.203C454.297 298.203 446.562 291.359 446.562 277.672C446.562 265.766 456.922 242.047 477.641 206.516C478.391 205.203 478.906 204.266 479.188 203.703C471.969 208.766 458.141 222.594 437.703 245.188C417.359 267.688 403.812 283.625 397.062 293C396.5 293.844 395.094 294.781 392.844 295.812C390.594 296.844 388.812 297.359 387.5 297.359C386.281 297.359 384.969 296.938 383.562 296.094C382.062 295.344 381.125 294.969 380.75 294.969C379.531 294.969 378.922 294.547 378.922 293.703C378.922 292.953 380.609 288.688 383.984 280.906C387.266 273.031 391.625 263.281 397.062 251.656C411.969 219.594 434.141 177.875 463.578 126.5C473.891 108.5 481.953 95.75 487.766 88.25C491.891 82.9062 498.828 80.2344 508.578 80.2344C510.641 80.2344 511.812 80.8437 512.094 82.0625C512.375 83.2813 512.516 84.5938 512.516 86C512.516 87.4062 512.234 88.8125 511.672 90.2188L496.625 113.703C466.812 160.203 444.359 198.734 429.266 229.297C443.891 211.484 458.094 197.75 471.875 188.094C480.406 182 486.781 178.953 491 178.953C495.312 178.953 499.203 179.656 502.672 181.062C506.141 182.375 507.875 185.609 507.875 190.766C507.875 192.641 504.828 199.578 498.734 211.578C480.453 247.578 471.312 267.594 471.312 271.625C471.312 275.562 472.953 277.531 476.234 277.531C481.016 277.531 488.375 272.891 498.312 263.609C505.812 256.578 510.547 252.078 512.516 250.109C513.641 249.266 514.672 248.844 515.609 248.844C517.391 248.844 518.375 249.734 518.562 251.516ZM603.641 185.844C606.453 185.844 609.312 187.109 612.219 189.641C615.219 192.172 616.719 196.062 616.719 201.312C616.719 206.469 614.891 213.219 611.234 221.562C607.578 229.812 602.562 238.25 596.188 246.875C589.812 255.406 582.781 263.469 575.094 271.062C567.5 278.562 559.25 284.75 550.344 289.625C541.531 294.406 533.516 296.797 526.297 296.797C519.078 296.797 513.266 294.547 508.859 290.047C504.547 285.453 502.391 279.125 502.391 271.062C502.391 262.906 504.359 253.906 508.297 244.062C512.328 234.219 517.484 225.547 523.766 218.047C530.047 210.453 536.844 203.656 544.156 197.656C559.438 185.375 572.844 179.234 584.375 179.234C589.531 179.234 593.422 180.5 596.047 183.031C596.984 183.875 597.453 184.625 597.453 185.281V186.125C598.766 185.938 600.828 185.844 603.641 185.844ZM589.438 204.547H588.453C585.172 204.547 583.531 202.156 583.531 197.375C576.688 199.625 569.516 203.562 562.016 209.188C554.516 214.812 547.812 221.469 541.906 229.156C529.906 244.531 523.812 257.516 523.625 268.109C523.625 273.359 525.547 275.984 529.391 275.984C533.234 275.984 538.953 273.453 546.547 268.391C554.141 263.328 561.641 256.109 569.047 246.734C576.547 237.359 582.125 229.25 585.781 222.406C589.531 215.469 591.406 210.781 591.406 208.344C591.406 205.812 590.75 204.547 589.438 204.547ZM716.703 136.625C716.703 142.812 713.328 148.859 706.578 154.766C699.922 160.672 693.5 163.625 687.312 163.625C682.906 163.625 680.703 160.953 680.703 155.609C680.703 150.172 683.797 144.5 689.984 138.594C696.172 132.688 702.172 129.734 707.984 129.734C713.797 129.734 716.703 132.031 716.703 136.625ZM679.156 250.109C680.656 248.984 681.969 248.609 683.094 248.984C684.312 249.359 685.062 250.391 685.344 252.078C686.562 258.172 686.516 263.281 685.203 267.406C684.734 268.156 681.219 270.359 674.656 274.016C668.188 277.672 660.781 281.891 652.438 286.672C644.188 291.453 635 297.594 624.875 305.094C614.75 312.594 606.359 320 599.703 327.312C595.766 335.188 590.188 343.531 582.969 352.344C569 369.219 557.375 377.656 548.094 377.656C544.344 377.656 541.156 376.438 538.531 374C535.906 371.562 534.594 368.516 534.594 364.859C534.594 361.203 535.531 357.781 537.406 354.594C539.188 351.5 542.234 347.844 546.547 343.625C550.859 339.406 554.562 335.938 557.656 333.219C560.75 330.5 565.672 326.422 572.422 320.984C579.078 315.547 583.625 311.797 586.062 309.734C590.188 302.797 595.438 293.844 601.812 282.875C608.188 271.906 613.25 263.281 617 257C627.688 239.094 636.125 225.734 642.312 216.922C641.844 216.828 640.812 216.875 639.219 217.062C637.625 217.25 636.266 217.344 635.141 217.344C634.109 217.25 632.984 216.688 631.766 215.656C630.641 214.531 629.891 212.844 629.516 210.594C628.953 207.312 634.297 201.828 645.547 194.141C656.891 186.359 664.578 182.469 668.609 182.469C675.641 182.469 679.156 185.984 679.156 193.016C679.156 193.766 678.781 195.219 678.031 197.375C677.281 199.531 669.219 213.031 653.844 237.875C638.562 262.719 627.969 279.641 622.062 288.641C622.906 288.078 625.484 286.203 629.797 283.016C634.203 279.828 638.797 276.5 643.578 273.031C648.359 269.562 653.328 266.047 658.484 262.484C670.391 254.234 677.281 250.109 679.156 250.109Z" fill="white"/>
<path d="M799.378 19L815.992 67.3688L869.756 67.3688L826.26 97.2624L842.874 145.631L799.378 115.738L755.882 145.631L772.496 97.2624L729 67.3688L782.764 67.3688L799.378 19Z" fill="#4285F4"/>
</svg>
